<?xml version="1.0" encoding="UTF-8"?>
<!DOCTYPE svg PUBLIC "-//W3C//DTD SVG 1.1//EN" "http://www.w3.org/Graphics/SVG/1.1/DTD/svg11.dtd">
<!-- Creator: CorelDRAW -->
<svg xmlns="http://www.w3.org/2000/svg" xml:space="preserve" width="512px" height="512px" version="1.1" style="shape-rendering:geometricPrecision; text-rendering:geometricPrecision; image-rendering:optimizeQuality; fill-rule:evenodd; clip-rule:evenodd"
viewBox="0 0 90 90"
 xmlns:xlink="http://www.w3.org/1999/xlink"
 xmlns:xodm="http://www.corel.com/coreldraw/odm/2003">
 <defs>
  <style type="text/css">
   <![CDATA[
    .fil0 {fill:black;fill-rule:nonzero}
   ]]>
  </style>
 </defs>
 <g id="Layer_x0020_1">
  <metadata id="CorelCorpID_0Corel-Layer"/>
  <path class="fil0" d="M2.68 0c-1.63,0 -2.49,0.9 -2.49,2.83l0 12.6c0,1.93 0.86,2.96 2.49,2.96l34.03 0 0 68.79c0,1.92 0.76,2.82 2.39,2.82l11.81 0c1.62,0 2.38,-0.9 2.38,-2.82l0 -68.79 34.03 0c1.63,0 2.5,-1.03 2.5,-2.96l0 -12.6c0,-1.93 -0.87,-2.83 -2.5,-2.83l-84.64 0z"/>
  <path class="fil0" d="M11.78 38.85c-8.91,0 -11.78,4.16 -11.78,14.56l0 22.1c0,10.4 2.87,14.49 11.78,14.49l21.34 0c0.59,0 0.89,-0.43 0.89,-1.29l0 -6.03c0,-0.86 -0.3,-1.29 -0.89,-1.29l-20.64 0c-4.31,0 -5.45,-1.86 -5.45,-6.38l0 -3.8 25 0c1.93,0 2.82,-1.01 2.82,-4.09l0 -16.5c0,-8.69 -1.78,-11.77 -8.56,-11.77l-14.51 0zm-4.75 14.35c0,-4.59 1.14,-6.39 5.45,-6.39l12.42 0c2.28,0 3.02,1.15 3.02,4.09l0 12.4c0,0.93 -0.25,1.52 -0.84,1.52l-20.05 0 0 -11.62z"/>
  <path class="fil0" d="M56.33 24.26c-0.69,0 -1.01,0.5 -1.01,1.58l0 62.58c0,1.08 0.32,1.58 1.01,1.58l4.51 0c0.69,0 1.01,-0.5 1.01,-1.58l0 -40.56 16.89 0c3.95,0 4.73,1.87 4.73,7.91l0 32.65c0,1.08 0.32,1.58 1.01,1.58l4.51 0c0.69,0 1.01,-0.5 1.01,-1.58l0 -35.09c0,-10.44 -2.66,-14.61 -10.94,-14.61l-17.21 0 0 -12.88c0,-1.08 -0.32,-1.58 -1.01,-1.58l-4.51 0z"/>
 </g>
</svg>
